<svg width="320" height="360" viewBox="0 0 320 360" xmlns="http://www.w3.org/2000/svg" role="img" aria-label="Plank back muscle map">
  <rect width="320" height="360" rx="28" fill="#070707"/>
  <text x="24" y="34" fill="#FFFFFF" font-family="Arial, sans-serif" font-size="16" font-weight="700">Plank</text>
  <text x="24" y="56" fill="#888888" font-family="Arial, sans-serif" font-size="11" font-weight="700">SECONDARY: SHOULDERS + GLUTES</text>
  <g transform="translate(96 66)" stroke="#2A2A2A" stroke-width="4" stroke-linecap="round" stroke-linejoin="round">
    <circle cx="64" cy="26" r="20" fill="#D8B5A5" stroke="none"/>
    <path d="M38 60 Q64 44 90 60 L82 142 Q64 158 46 142 Z" fill="#333333"/>
    <path d="M36 66 Q64 52 92 66" stroke="#FFD700"/>
    <path d="M47 142 Q64 158 81 142 L90 190 Q64 204 38 190 Z" fill="#FFD700" stroke="none" opacity=".82"/>
    <path d="M38 66 L12 122" fill="none"/>
    <path d="M90 66 L116 122" fill="none"/>
    <path d="M47 142 L26 258" fill="none"/>
    <path d="M81 142 L102 258" fill="none"/>
  </g>
</svg>
